<?xml version="1.0" standalone="no"?>
<!DOCTYPE svg PUBLIC "-//W3C//DTD SVG 20010904//EN"
 "http://www.w3.org/TR/2001/REC-SVG-20010904/DTD/svg10.dtd">
<svg version="1.0" xmlns="http://www.w3.org/2000/svg"
 width="800.000000pt" height="800.000000pt" viewBox="0 0 800.000000 800.000000"
 preserveAspectRatio="xMidYMid meet">
<metadata>
Created by potrace 1.14, written by Peter Selinger 2001-2017
</metadata>
<g transform="translate(0.000000,800.000000) scale(0.100000,-0.100000)"
fill="#000000" stroke="none">
<path d="M3629 7886 c-2 -3 -29 -7 -59 -10 -61 -7 -120 -14 -159 -21 -14 -2
-42 -7 -61 -10 -48 -8 -81 -14 -110 -20 -107 -21 -141 -28 -180 -40 -57 -16
-200 -56 -220 -60 -37 -9 -250 -88 -362 -135 -110 -46 -395 -186 -408 -200 -3
-3 -15 -11 -27 -17 -57 -32 -68 -39 -81 -50 -7 -7 -17 -13 -22 -13 -8 0 -65
-37 -190 -124 -24 -17 -56 -41 -70 -53 -13 -13 -29 -23 -33 -23 -5 0 -14 -6
-21 -12 -7 -7 -32 -29 -56 -48 -193 -154 -447 -404 -575 -565 -16 -21 -37 -45
-45 -54 -8 -9 -39 -50 -69 -91 -30 -41 -57 -77 -60 -80 -12 -10 -71 -101 -71
-109 0 -5 -4 -11 -8 -13 -4 -1 -21 -25 -37 -53 -15 -27 -31 -52 -35 -55 -20
-16 -246 -450 -234 -450 2 0 -2 -10 -11 -23 -8 -13 -12 -27 -8 -30 3 -4 2 -7
-4 -7 -6 0 -14 -12 -18 -27 -3 -15 -15 -46 -26 -70 -10 -23 -19 -48 -19 -55 0
-8 -4 -18 -9 -24 -8 -8 -80 -225 -84 -255 -2 -8 -6 -19 -9 -25 -4 -6 -9 -21
-12 -35 -9 -44 -14 -64 -26 -109 -7 -25 -14 -54 -16 -65 -2 -11 -12 -65 -23
-120 -20 -104 -32 -172 -37 -215 -1 -14 -6 -56 -11 -95 -10 -89 -11 -769 0
-854 10 -85 15 -119 33 -221 19 -114 23 -137 35 -190 6 -25 12 -54 15 -65 14
-68 110 -387 133 -440 5 -11 20 -49 34 -85 54 -141 190 -423 253 -525 13 -22
27 -47 31 -55 13 -29 195 -295 204 -298 5 -2 9 -8 9 -13 0 -5 6 -17 14 -26 8
-10 45 -56 83 -103 95 -119 120 -147 278 -305 177 -177 251 -241 430 -375 33
-25 62 -48 63 -52 2 -5 10 -8 18 -8 8 0 14 -3 14 -8 0 -4 17 -16 37 -27 20
-11 41 -25 47 -30 54 -52 415 -246 607 -328 112 -47 141 -59 149 -62 3 -1 12
-4 20 -7 81 -31 305 -103 353 -113 10 -2 27 -7 37 -10 34 -11 275 -62 330 -71
19 -2 46 -7 60 -9 69 -13 160 -23 300 -35 99 -8 565 -5 635 4 22 3 60 7 85 10
77 8 134 16 160 21 13 3 40 7 60 10 20 3 47 8 60 10 14 3 37 7 52 10 67 13
323 75 363 89 6 2 13 4 17 5 13 2 251 88 283 101 17 8 32 14 35 14 41 6 413
190 525 259 44 28 96 59 115 71 19 11 37 24 38 28 2 4 8 8 13 8 14 0 291 203
344 251 11 10 42 38 69 61 27 24 77 69 110 101 33 31 61 57 62 57 3 0 38 37
129 135 65 70 102 112 140 160 22 27 45 55 50 62 64 78 128 166 204 283 44 69
85 130 89 135 5 6 9 15 11 20 2 6 20 39 41 75 34 59 144 279 183 370 37 84
133 341 141 380 2 8 12 42 22 75 10 33 19 65 20 70 1 6 13 57 27 115 34 140
64 302 73 385 1 17 5 48 8 70 29 221 29 675 1 885 -2 19 -7 57 -11 84 -5 41
-22 143 -50 291 -28 150 -144 526 -204 660 -10 22 -30 69 -45 105 -36 85 -138
288 -187 370 -77 131 -125 207 -162 256 -17 23 -38 52 -46 64 -13 19 -49 68
-77 105 -5 6 -24 30 -43 55 -19 25 -42 54 -52 65 -9 11 -36 43 -60 70 -97 115
-362 370 -474 458 -30 23 -54 45 -54 49 0 5 -5 8 -10 8 -6 0 -16 5 -23 10 -17
15 -81 63 -103 78 -11 7 -54 37 -97 67 -42 30 -80 55 -83 55 -3 0 -26 14 -50
31 -25 17 -69 44 -97 60 -73 40 -382 193 -398 197 -8 2 -27 10 -44 18 -16 9
-66 29 -110 45 -44 17 -90 34 -102 39 -27 11 -250 80 -276 85 -10 2 -27 7 -37
10 -10 3 -27 7 -37 9 -10 2 -36 9 -58 14 -22 6 -53 13 -70 16 -16 3 -52 10
-80 16 -91 17 -99 19 -175 29 -41 6 -91 14 -110 17 -40 7 -815 16 -821 10z"/>
</g>
</svg>
